<svg xmlns="http://www.w3.org/2000/svg" shape-rendering="geometricPrecision" text-rendering="geometricPrecision" image-rendering="optimizeQuality" fill-rule="evenodd" clip-rule="evenodd" viewBox="0 0 394 511.981"><path d="M158.912 88.115c-7.903-23.314-15.02-46.892-21.026-70.838 22.398-24.583 108.964-21.316 133.86-.384l-23.05 54.803c12.396-16.285 16.563-22.97 23.958-32.043a71.446 71.446 0 018.787 6.814c6.557 5.936 12.413 12.495 13.597 21.638.768 5.929-.927 11.953-6.203 18.111l-52.884 61.595c-6.807-1.116-13.459-2.749-19.914-5.044 2.999-7.058 6.616-14.823 9.615-21.882l-19.253 20.795c-20.058-4.232-36.188-1.707-51.219 6.243l-53.632-64.367c-3.186-3.839-4.636-7.678-4.624-11.517.051-15.559 23.218-28.987 35.396-34.07l26.592 50.146zm-4.514 240.958l6.774-15.259h25.549c-1.613-5.415-7.945-8.462-13.248-8.462h-19.075l6.774-15.26h73.131l-6.774 15.26h-17.665c2.345 1.798 4.856 5.502 5.295 8.462h19.144l-6.774 15.259h-13.85c-4.471 11.381-18.105 19.113-29.733 20.786l38.427 39.559h-30.381l-34.265-37.594v-14.011h15.168c5.161 0 11.588-3.626 13.225-8.74h-31.722zm73.241-124.664l-10.467-47.871c44.832 8.338 116.691 99.535 139.911 140.999 11.852 21.163 22.232 44.479 30.731 70.544 16.931 63.081.622 122.093-67.808 135.839-42.876 8.613-122.837 9.223-167.929 6.89-48.476-2.509-123.494-2.431-143.09-52.204-31.628-80.338 26.319-176.045 79.155-234.623 6.952-7.708 14.141-14.891 21.579-21.522 19.219-16.91 39.943-36.975 64.682-45.318l-23.895 44.494 34.705-46.01h18.288l24.138 48.782zm-119.957 88.228c25.48-47.867 84.932-66.014 132.799-40.534 47.867 25.479 66.014 84.931 40.535 132.799-25.48 47.867-84.932 66.014-132.799 40.535-47.868-25.48-66.014-84.932-40.535-132.8z"/></svg>